<svg width="36" height="36" viewBox="0 0 36 36" fill="none" xmlns="http://www.w3.org/2000/svg">
<path d="M18 0C8.05905 0 0 8.05905 0 18C0 27.9409 8.05905 36 18 36C27.9409 36 36 27.9409 36 18C36 8.05905 27.9409 0 18 0ZM7.91064 7.91064H28.0894V11.4825H25.8928V13.4475H28.0894V17.0175H25.8928V18.9825H28.0894V22.5525H25.8928V24.5175H28.0894V28.0903H7.91064V7.91064ZM16.9012 11.4347C15.2905 11.4347 13.9856 12.7414 13.9856 14.3522C13.9856 15.4937 14.6409 16.4813 15.5962 16.9603L11.8631 19.1953H11.8172V22.3481H21.9853V19.1953H21.9394L18.2062 16.9603C19.1616 16.4813 19.8169 15.4937 19.8169 14.3522C19.8169 12.7414 18.512 11.4347 16.9012 11.4347Z" fill="#A8A2A2"/>
</svg>
