<svg width="20" height="20" viewBox="0 0 32 32" fill="none" xmlns="http://www.w3.org/2000/svg">
<path d="M16.6999 0.818605L16.7001 0.818797L31.3238 17.5761H28.0231C27.9547 17.5761 27.8976 17.5477 27.861 17.5052L27.859 17.5029L18.0748 6.28997L17.1981 5.28521V6.61871V31.5H14.8011V6.61871V5.28521L13.9244 6.28997L4.14356 17.4991C4.14315 17.4995 4.14275 17.5 4.14234 17.5004C4.09733 17.5502 4.03636 17.5761 3.97608 17.5761H0.675373L15.2947 0.818741L15.2948 0.818605C15.3818 0.718839 15.4895 0.638629 15.6107 0.583586C15.732 0.528539 15.8639 0.5 15.9974 0.5C16.1309 0.5 16.2627 0.528539 16.384 0.583586C16.5052 0.638628 16.6129 0.718837 16.6999 0.818605Z" />
</svg>
