<svg width="14" height="22" viewBox="0 0 14 22" fill="none" xmlns="http://www.w3.org/2000/svg">
<path d="M0.535359 0.484254C0.192569 0.794415 0 1.21503 0 1.6536C0 2.09216 0.192569 2.51278 0.535359 2.82294L9.5864 11.01L0.535359 19.197C0.202284 19.509 0.0179809 19.9268 0.022147 20.3604C0.0263131 20.7941 0.218614 21.2089 0.557632 21.5156C0.89665 21.8222 1.35526 21.9962 1.83468 21.9999C2.31411 22.0037 2.77599 21.837 3.12085 21.5357L13.4646 12.1793C13.8074 11.8692 14 11.4486 14 11.01C14 10.5714 13.8074 10.1508 13.4646 9.84064L3.12085 0.484254C2.77796 0.174186 2.31295 0 1.8281 0C1.34325 0 0.878252 0.174186 0.535359 0.484254V0.484254Z"/>
</svg>
