<svg width="100" height="100" viewBox="0 0 100 100" fill="none" xmlns="http://www.w3.org/2000/svg">
<path opacity="0.3" d="M83.3337 33.3333V50.3333C81.9587 50.125 80.5837 50 79.167 50C64.4587 50 52.3753 60.875 50.3337 75H16.667V33.3333L50.0003 54.1667L83.3337 33.3333ZM83.3337 25H16.667L50.0003 45.8333L83.3337 25Z" fill="#fff"/>
<path d="M50.333 75.0001H16.6663V33.3334L49.9997 54.1667L83.333 33.3334V50.3334C86.2913 50.7501 89.083 51.6251 91.6663 52.8334V25.0001C91.6663 20.4167 87.9163 16.6667 83.333 16.6667H16.6663C12.083 16.6667 8.37467 20.4167 8.37467 25.0001L8.33301 75.0001C8.33301 79.5834 12.083 83.3334 16.6663 83.3334H50.333C50.1247 81.9584 49.9997 80.5834 49.9997 79.1667C49.9997 77.7501 50.1247 76.3751 50.333 75.0001ZM83.333 25.0001L49.9997 45.8334L16.6663 25.0001H83.333ZM72.2497 91.6667L57.4997 76.9167L63.3747 71.0417L72.208 79.8751L89.8747 62.2084L95.833 68.0834L72.2497 91.6667Z" fill="#1C6DD0"/>
</svg>
