<svg width="17" height="17" viewBox="0 0 17 17" fill="none" xmlns="http://www.w3.org/2000/svg">
<path d="M13.556 15.6667H1.33377V3.44444H8.67821L9.78932 2.33333H1.33377C1.03908 2.33333 0.756467 2.45039 0.548093 2.65877C0.339719 2.86714 0.222656 3.14975 0.222656 3.44444V15.6667C0.222656 15.9613 0.339719 16.244 0.548093 16.4523C0.756467 16.6607 1.03908 16.7778 1.33377 16.7778H13.556C13.8507 16.7778 14.1333 16.6607 14.3417 16.4523C14.55 16.244 14.6671 15.9613 14.6671 15.6667V7.33333L13.556 8.44444V15.6667Z" fill="#867D7D"/>
<path d="M16.6283 2.24444L14.756 0.372219C14.6729 0.288902 14.5742 0.222798 14.4656 0.177695C14.3569 0.132592 14.2404 0.109375 14.1227 0.109375C14.005 0.109375 13.8885 0.132592 13.7798 0.177695C13.6712 0.222798 13.5725 0.288902 13.4894 0.372219L5.8727 8.03333L5.25603 10.7056C5.22976 10.8351 5.23252 10.9688 5.26412 11.0972C5.29572 11.2255 5.35536 11.3452 5.43877 11.4478C5.52217 11.5503 5.62727 11.6331 5.74649 11.6901C5.8657 11.7472 5.99609 11.7771 6.12826 11.7778C6.19657 11.7853 6.2655 11.7853 6.33381 11.7778L9.02825 11.1833L16.6283 3.51111C16.7116 3.42802 16.7777 3.32931 16.8228 3.22063C16.8679 3.11195 16.8911 2.99544 16.8911 2.87777C16.8911 2.76011 16.8679 2.6436 16.8228 2.53492C16.7777 2.42624 16.7116 2.32753 16.6283 2.24444ZM8.45048 10.1556L6.41714 10.6056L6.88937 8.58889L12.6227 2.81666L14.1894 4.38333L8.45048 10.1556ZM14.8171 3.75555L13.2505 2.18889L14.1116 1.31111L15.6894 2.88889L14.8171 3.75555Z" fill="#867D7D"/>
</svg>
