<svg width="50" height="35" viewBox="0 0 50 35" fill="none" xmlns="http://www.w3.org/2000/svg">
<path d="M50 17.1875C50 17.1875 40.625 34.375 25 34.375C9.375 34.375 0 17.1875 0 17.1875C0 17.1875 9.375 0 25 0C40.625 0 50 17.1875 50 17.1875ZM3.66562 17.1875C5.17661 19.484 6.9145 21.6229 8.85312 23.5719C12.875 27.6 18.375 31.25 25 31.25C31.625 31.25 37.1219 27.6 41.15 23.5719C43.0886 21.6229 44.8265 19.484 46.3375 17.1875C46.1563 16.9156 45.9563 16.6156 45.7281 16.2875C44.6813 14.7875 43.1344 12.7875 41.15 10.8031C37.1219 6.775 31.6219 3.125 25 3.125C18.375 3.125 12.8781 6.775 8.85 10.8031C6.91139 12.7522 5.1735 14.891 3.6625 17.1875H3.66562Z" fill="black"/>
<path d="M25 25C22.928 25 20.9409 24.1769 19.4757 22.7118C18.0106 21.2466 17.1875 19.2595 17.1875 17.1875C17.1875 15.1155 18.0106 13.1284 19.4757 11.6632C20.9409 10.1981 22.928 9.375 25 9.375C27.072 9.375 29.0591 10.1981 30.5243 11.6632C31.9894 13.1284 32.8125 15.1155 32.8125 17.1875C32.8125 19.2595 31.9894 21.2466 30.5243 22.7118C29.0591 24.1769 27.072 25 25 25ZM14.0625 17.1875C14.0625 20.0883 15.2148 22.8703 17.266 24.9215C19.3172 26.9727 22.0992 28.125 25 28.125C27.9008 28.125 30.6828 26.9727 32.734 24.9215C34.7852 22.8703 35.9375 20.0883 35.9375 17.1875C35.9375 14.2867 34.7852 11.5047 32.734 9.45352C30.6828 7.40234 27.9008 6.25 25 6.25C22.0992 6.25 19.3172 7.40234 17.266 9.45352C15.2148 11.5047 14.0625 14.2867 14.0625 17.1875Z" fill="black"/>
</svg>
