<svg width="50" height="40" viewBox="0 0 50 40" fill="none" xmlns="http://www.w3.org/2000/svg">
<path d="M41.7469 9.73745C47.0625 14.4812 50 19.8562 50 19.8562C50 19.8562 40.625 37.0437 25 37.0437C21.9987 37.0334 19.0314 36.408 16.2812 35.2062L18.6875 32.7968C20.7107 33.5338 22.8467 33.9135 25 33.9187C31.625 33.9187 37.1219 30.2687 41.15 26.2406C43.0886 24.2915 44.8265 22.1527 46.3375 19.8562C46.1563 19.5843 45.9563 19.2843 45.7281 18.9562C44.6813 17.4562 43.1344 15.4562 41.15 13.4718C40.6344 12.9562 40.0969 12.4468 39.5344 11.9531L41.7469 9.73745Z" fill="black"/>
<path d="M35.303 16.1813C36.0004 18.1318 36.1295 20.2402 35.6754 22.2613C35.2213 24.2823 34.2027 26.1328 32.738 27.5975C31.2732 29.0622 29.4227 30.0809 27.4017 30.535C25.3807 30.9891 23.2723 30.8599 21.3218 30.1626L23.8936 27.5907C25.0946 27.7626 26.3191 27.6524 27.4701 27.2689C28.6211 26.8854 29.667 26.2391 30.5249 25.3813C31.3827 24.5234 32.029 23.4775 32.4125 22.3265C32.796 21.1755 32.9062 19.951 32.7343 18.7501L35.303 16.1813ZM26.1061 12.1219L28.6749 9.55319C26.7244 8.85583 24.616 8.72669 22.595 9.18078C20.5739 9.63488 18.7234 10.6535 17.2587 12.1182C15.794 13.583 14.7753 15.4335 14.3212 17.4545C13.8671 19.4755 13.9963 21.5839 14.6936 23.5344L17.2655 20.9626C17.0936 19.7616 17.2038 18.5371 17.5873 17.3861C17.9708 16.2351 18.6171 15.1892 19.4749 14.3313C20.3328 13.4735 21.3787 12.8272 22.5297 12.4437C23.6807 12.0602 24.9052 11.95 26.1061 12.1219V12.1219Z" fill="black"/>
<path d="M10.4687 27.7625C9.90625 27.2625 9.36563 26.7563 8.85 26.2406C6.91139 24.2916 5.1735 22.1528 3.6625 19.8563L4.27187 18.9563C5.31875 17.4563 6.86563 15.4563 8.85 13.4719C12.8781 9.44377 18.3781 5.79377 25 5.79377C27.2375 5.79377 29.3438 6.2094 31.3125 6.91877L33.7187 4.50628C30.9686 3.30456 28.0013 2.6792 25 2.66877C9.375 2.66877 0 19.8563 0 19.8563C0 19.8563 2.93438 25.2344 8.25313 29.975L10.4656 27.7594L10.4687 27.7625ZM42.6437 2.38419e-05L5.14375 37.5L7.35625 39.7125L44.8563 2.21252L42.6437 2.38419e-05Z" fill="black"/>
</svg>
