<svg width="51" height="52" viewBox="0 0 51 52" fill="none" xmlns="http://www.w3.org/2000/svg">
<ellipse cx="25.5" cy="26" rx="25.5" ry="26" fill="#F72B2B"/>
<path d="M15.4179 16.4361C15.6856 16.1683 16.0486 16.0179 16.427 16.0179C16.8055 16.0179 17.1685 16.1683 17.4362 16.4361L24.9911 23.9976L32.546 16.4361C32.6777 16.2997 32.8352 16.1909 33.0093 16.116C33.1834 16.0411 33.3707 16.0017 33.5603 16.0001C33.7498 15.9984 33.9377 16.0346 34.1131 16.1064C34.2886 16.1782 34.4479 16.2843 34.5819 16.4184C34.716 16.5526 34.8219 16.7121 34.8937 16.8876C34.9655 17.0632 35.0016 17.2513 34.9999 17.441C34.9983 17.6307 34.9589 17.8181 34.8841 17.9924C34.8093 18.1667 34.7006 18.3243 34.5642 18.4561L27.0093 26.0176L34.5642 33.579C34.8242 33.8484 34.9681 34.2093 34.9649 34.5838C34.9616 34.9584 34.8115 35.3167 34.5469 35.5816C34.2822 35.8465 33.9242 35.9967 33.55 35.9999C33.1757 36.0032 32.8152 35.8592 32.546 35.599L24.9911 28.0376L17.4362 35.599C17.167 35.8592 16.8064 36.0032 16.4322 35.9999C16.0579 35.9967 15.6999 35.8465 15.4353 35.5816C15.1707 35.3167 15.0205 34.9584 15.0173 34.5838C15.014 34.2093 15.1579 33.8484 15.4179 33.579L22.9728 26.0176L15.4179 18.4561C15.1503 18.1882 15 17.8249 15 17.4461C15 17.0673 15.1503 16.704 15.4179 16.4361Z" fill="white"/>
</svg>
