<svg width="40" height="38" viewBox="0 0 40 38" fill="none" xmlns="http://www.w3.org/2000/svg">
<path d="M33.8509 36.85H23.2687V28.0558V26.9058H22.1187H17.177H16.027V28.0558V36.85H6.15071C6.01149 36.85 5.88878 36.7367 5.88878 36.5794V23.5409V22.3909H4.73878H2.82385C1.90808 22.3909 1.15 21.6383 1.15 20.6997C1.15 20.2498 1.3291 19.8175 1.64487 19.4996C1.64497 19.4995 1.64507 19.4994 1.64517 19.4993L19.819 1.22713L19.8201 1.22603C19.8445 1.20147 19.873 1.18236 19.904 1.16945C19.9349 1.15655 19.9678 1.15 20.0008 1.15C20.0339 1.15 20.0668 1.15655 20.0977 1.16945C20.1286 1.18236 20.1572 1.20147 20.1815 1.22604L20.1826 1.22713L38.3565 19.4993C38.3566 19.4994 38.3567 19.4995 38.3568 19.4996C39.014 20.1613 39.0139 21.2359 38.3593 21.8973L38.3575 21.899C38.0461 22.215 37.6228 22.3909 37.1778 22.3909H35.2629H34.1129V23.5409V36.5794C34.1129 36.7367 33.9902 36.85 33.8509 36.85Z" />
</svg>
