<svg width="42" height="34" viewBox="0 0 42 34" fill="none" xmlns="http://www.w3.org/2000/svg">
<path d="M16.2399 17C18.6378 17 20.4066 15.2312 20.4066 12.8333C20.4066 10.4354 18.6378 8.66664 16.2399 8.66664C13.842 8.66664 12.0732 10.4354 12.0732 12.8333C12.0732 15.2312 13.8399 17 16.2399 17Z" fill="#fff"/>
<path d="M37.667 0.333313H4.33366C2.03574 0.333313 0.166992 2.0854 0.166992 4.23956V29.7604C0.166992 31.9146 2.03574 33.6666 4.33366 33.6666H37.667C39.9649 33.6666 41.8337 31.9146 41.8337 29.7604V4.23956C41.8337 2.0854 39.9649 0.333313 37.667 0.333313ZM37.667 29.5L4.33366 29.4771V4.49998L37.667 4.5229V29.5Z" fill="#fff"/>
<path d="M25.1668 10.75H33.5002V14.9166H25.1668V10.75ZM27.2502 19.0833H33.5002V23.25H27.2502V19.0833ZM23.9793 24.3666C23.9793 21.5041 20.4877 18.5625 16.2397 18.5625C11.9918 18.5625 8.50016 21.5041 8.50016 24.3666V25.3333H23.9793V24.3666Z" fill="#fff"/>
</svg>
