<svg width="84" height="84" viewBox="0 0 84 84" fill="none" xmlns="http://www.w3.org/2000/svg">
<path d="M44.9999 0.458253C39.0393 0.0243578 33.0552 0.878946 27.4544 2.96392C21.8535 5.0489 16.7672 8.31538 12.5413 12.5413C8.31538 16.7672 5.0489 21.8535 2.96392 27.4544C0.878946 33.0552 0.0243578 39.0393 0.458253 44.9999C1.95825 67.0416 21.2083 83.6666 43.2916 83.6666H58.6666C60.9583 83.6666 62.8333 81.7916 62.8333 79.4999C62.8333 77.2082 60.9583 75.3332 58.6666 75.3332H43.3749C27.8333 75.3332 13.5833 65.2499 9.70825 50.2083C3.49992 26.0416 25.9999 3.49992 50.1666 9.74992C65.2499 13.5833 75.3332 27.8333 75.3332 43.3749V47.9583C75.3332 51.2499 72.3749 54.4999 69.0832 54.4999C65.7916 54.4999 62.8333 51.2499 62.8333 47.9583V42.7499C62.8333 32.2916 55.4166 22.8749 45.0833 21.4166C41.7956 20.9277 38.4387 21.2313 35.2921 22.3021C32.1454 23.3728 29.3001 25.1798 26.993 27.5725C24.6859 29.9652 22.9837 32.8744 22.0283 36.058C21.0728 39.2415 20.8917 42.6072 21.4999 45.8749C22.2307 49.8123 24.0817 53.4553 26.8309 56.3672C29.5802 59.279 33.111 61.336 36.9999 62.2916C44.6666 64.0833 51.9583 61.6249 56.7499 56.7499C60.4583 61.8333 67.8749 64.4999 74.6666 61.7916C80.2499 59.5833 83.6666 53.8749 83.6666 47.8749V43.3333C83.6666 21.2083 67.0416 1.95825 44.9999 0.458253ZM41.9999 54.4999C35.0833 54.4999 29.4999 48.9166 29.4999 41.9999C29.4999 35.0833 35.0833 29.4999 41.9999 29.4999C48.9166 29.4999 54.4999 35.0833 54.4999 41.9999C54.4999 48.9166 48.9166 54.4999 41.9999 54.4999Z" fill="#fff"/>
</svg>
