<svg width="40" height="37" viewBox="0 0 40 37" fill="none" xmlns="http://www.w3.org/2000/svg">
<path d="M36.4998 28.9114L36.122 28.603C35.0503 27.7198 34.1122 26.7068 33.3331 25.5916C32.4822 24.0526 31.9723 22.3718 31.8331 20.648V15.5708C31.8405 12.8632 30.7787 10.2464 28.8473 8.21189C26.9158 6.1774 24.2477 4.86533 21.3442 4.5222V3.19636C21.3442 2.83246 21.1879 2.48347 20.9098 2.22615C20.6316 1.96884 20.2543 1.82428 19.8609 1.82428C19.4675 1.82428 19.0902 1.96884 18.812 2.22615C18.5338 2.48347 18.3776 2.83246 18.3776 3.19636V4.54275C15.5001 4.91062 12.8642 6.23063 10.9581 8.25828C9.0521 10.2859 8.00504 12.8838 8.01089 15.5708V20.648C7.87173 22.3718 7.36176 24.0526 6.51089 25.5916C5.74521 26.7041 4.82222 27.7168 3.76645 28.603L3.38867 28.9114V31.8097H36.4998V28.9114Z" stroke="#888" stroke-width="3"/>
<path d="M17.0225 32.8889C17.1199 33.5404 17.4689 34.1373 18.005 34.5693C18.5411 35.0013 19.2281 35.2393 19.9391 35.2393C20.6501 35.2393 21.3371 35.0013 21.8733 34.5693C22.4094 34.1373 22.7584 33.5404 22.8558 32.8889H17.0225Z" stroke="#888" stroke-width="3"/>
</svg>
