<svg width="40" height="38" viewBox="0 0 40 38" fill="none" xmlns="http://www.w3.org/2000/svg">
<g clip-path="url(#clip0_33:32)">
<path d="M21.7405 35.9759C21.2952 36.5269 20.7949 36.7614 20.3539 36.7776C19.9042 36.7847 19.3911 36.5676 18.9301 36.0185C18.6538 35.6894 18.4209 35.2665 18.2556 34.7778H22.3795C22.2215 35.2452 22.0016 35.6528 21.7405 35.9759Z" stroke="white" stroke-width="2"/>
<path d="M39.6987 34.1736V32.4339L39.6462 32.3917L39.6425 32.3887C38.3661 31.3519 37.2463 30.1609 36.3146 28.8465L36.2841 28.8034L36.2583 28.7574C35.2307 26.9255 34.6123 24.9203 34.4436 22.8598L34.4402 22.819V22.7781V17.1433C34.437 16.7364 34.4099 16.3299 34.3589 15.9257C32.3108 15.4044 30.4697 14.3136 29.1015 12.781C27.5781 11.0746 26.7362 8.92527 26.7403 6.69496V6.69596H26.877M39.6987 34.1736L27.4177 6.69596M39.6987 34.1736H4.38867V32.4339L4.44113 32.3917L4.44119 32.3917L4.45178 32.383C5.70916 31.3428 6.81102 30.1519 7.72668 28.8408L7.75488 28.8004L7.77898 28.7574C8.80659 26.9255 9.42493 24.9203 9.59371 22.8598L9.59705 22.819V22.7781L9.59705 17.1397L9.59704 17.137C9.5899 14.4275 10.6575 11.7912 12.6286 9.71791C14.602 7.64226 17.3483 6.27277 20.3683 5.8844L21.2408 5.7722V4.89257V3.39735C21.2408 3.28986 21.2868 3.16578 21.404 3.05889C21.5244 2.94919 21.7058 2.8736 21.9122 2.8736C22.1186 2.8736 22.3001 2.94919 22.4204 3.05889C22.5376 3.16578 22.5837 3.28986 22.5837 3.39735V4.8355V5.72519L23.4673 5.82871C24.5969 5.96103 25.6983 6.23521 26.7403 6.64176M39.6987 34.1736L26.7403 6.64176M26.877 6.69596C27.0297 6.75754 27.181 6.82199 27.331 6.88927L27.4177 6.69596M26.877 6.69596C26.8755 6.69539 26.8741 6.69481 26.8727 6.69424L27.4177 6.69596M26.877 6.69596H27.4177M26.7403 6.64176L26.7403 6.69397L26.7403 6.64176Z" stroke="white" stroke-width="2"/>
<path d="M39.2873 6.76554C39.2873 9.28296 37.0224 11.4755 34.0323 11.4755C31.0423 11.4755 28.7773 9.28296 28.7773 6.76554C28.7773 4.24813 31.0423 2.05554 34.0323 2.05554C37.0224 2.05554 39.2873 4.24813 39.2873 6.76554Z" stroke="white" stroke-width="2"/>
</g>
<defs>
<clipPath id="clip0_33:32">
<rect width="40" height="38" fill="white"/>
</clipPath>
</defs>
</svg>
