<svg width="35" height="34" viewBox="0 0 35 34" fill="none" xmlns="http://www.w3.org/2000/svg">
<path d="M14.2202 19.64C16.3077 21.7576 18.8335 23.3926 21.6202 24.43L25.3902 21.43C25.502 21.353 25.6345 21.3118 25.7702 21.3118C25.906 21.3118 26.0385 21.353 26.1502 21.43L33.1502 25.94C33.416 26.0998 33.6409 26.3191 33.8073 26.5808C33.9737 26.8424 34.077 27.1392 34.109 27.4476C34.141 27.756 34.1009 28.0677 33.9918 28.3579C33.8826 28.6482 33.7075 28.909 33.4802 29.12L30.2002 32.36C29.7305 32.8241 29.1532 33.1647 28.5198 33.3514C27.8864 33.5381 27.2166 33.5651 26.5702 33.43C20.1224 32.0983 14.1794 28.9795 9.42024 24.43C4.76672 19.8352 1.54651 13.9888 0.150239 7.59998C0.012305 6.96362 0.0410937 6.30242 0.233815 5.68046C0.426536 5.05849 0.776654 4.49686 1.25024 4.04998L4.65024 0.769983C4.86064 0.553771 5.11722 0.387958 5.40079 0.284961C5.68435 0.181964 5.98754 0.144451 6.28765 0.175232C6.58776 0.206013 6.87702 0.30429 7.13377 0.462704C7.39052 0.621117 7.60811 0.835563 7.77024 1.08998L12.4302 7.99998C12.5106 8.10849 12.554 8.23995 12.554 8.37498C12.554 8.51002 12.5106 8.64148 12.4302 8.74998L9.36024 12.44C10.4258 15.1709 12.086 17.6304 14.2202 19.64Z" fill="#fff"/>
</svg>
