<svg width="88" height="88" viewBox="0 0 88 88" fill="none" xmlns="http://www.w3.org/2000/svg">
<path d="M44.2765 51.48C48.3648 51.48 51.679 48.1311 51.679 44C51.679 39.8689 48.3648 36.52 44.2765 36.52C40.1882 36.52 36.874 39.8689 36.874 44C36.874 48.1311 40.1882 51.48 44.2765 51.48Z" fill="white"/>
<path d="M64.0165 24.0533H56.1945L53.1348 20.6873C52.675 20.1772 52.1149 19.7696 51.4904 19.4905C50.8658 19.2115 50.1905 19.0671 49.5076 19.0667H39.0454C37.6636 19.0667 36.3312 19.6651 35.3935 20.6873L32.3585 24.0533H24.5366C21.8223 24.0533 19.6016 26.2973 19.6016 29.04V58.96C19.6016 61.7027 21.8223 63.9467 24.5366 63.9467H64.0165C66.7307 63.9467 68.9515 61.7027 68.9515 58.96V29.04C68.9515 26.2973 66.7307 24.0533 64.0165 24.0533ZM44.2765 56.4667C37.4662 56.4667 31.939 50.8816 31.939 44C31.939 37.1184 37.4662 31.5333 44.2765 31.5333C51.0868 31.5333 56.614 37.1184 56.614 44C56.614 50.8816 51.0868 56.4667 44.2765 56.4667Z" fill="white"/>
</svg>
