<svg width="22" height="24" viewBox="0 0 22 24" fill="none" xmlns="http://www.w3.org/2000/svg">
<path d="M4 23.6667C3.07174 23.6667 2.1815 23.2979 1.52513 22.6415C0.868749 21.9852 0.5 21.0949 0.5 20.1667V3.83334C0.5 2.90508 0.868749 2.01484 1.52513 1.35846C2.1815 0.702085 3.07174 0.333336 4 0.333336H13.534C14.4618 0.333843 15.3514 0.702699 16.0073 1.35884L20.4757 5.82484C21.1317 6.48125 21.5001 7.37132 21.5 8.29934V20.1667C21.5 21.0949 21.1313 21.9852 20.4749 22.6415C19.8185 23.2979 18.9283 23.6667 18 23.6667H4ZM2.83333 20.1667C2.83333 20.4761 2.95625 20.7728 3.17504 20.9916C3.39383 21.2104 3.69058 21.3333 4 21.3333H18C18.3094 21.3333 18.6062 21.2104 18.825 20.9916C19.0438 20.7728 19.1667 20.4761 19.1667 20.1667V9.66667H15.6667C14.7384 9.66667 13.8482 9.29792 13.1918 8.64154C12.5354 7.98517 12.1667 7.09493 12.1667 6.16667V2.66667H4C3.69058 2.66667 3.39383 2.78959 3.17504 3.00838C2.95625 3.22717 2.83333 3.52392 2.83333 3.83334V20.1667ZM15.6667 7.33334H18.6837L14.5 3.14967V6.16667C14.5 6.47609 14.6229 6.77283 14.8417 6.99163C15.0605 7.21042 15.3572 7.33334 15.6667 7.33334ZM15.6667 13.1667C15.6667 12.8573 15.5437 12.5605 15.325 12.3417C15.1062 12.1229 14.8094 12 14.5 12C14.1906 12 13.8938 12.1229 13.675 12.3417C13.4562 12.5605 13.3333 12.8573 13.3333 13.1667V17.8333C13.3333 18.1428 13.4562 18.4395 13.675 18.6583C13.8938 18.8771 14.1906 19 14.5 19C14.8094 19 15.1062 18.8771 15.325 18.6583C15.5437 18.4395 15.6667 18.1428 15.6667 17.8333V13.1667ZM12.1667 15.5C12.1667 15.1906 12.0437 14.8938 11.825 14.675C11.6062 14.4563 11.3094 14.3333 11 14.3333C10.6906 14.3333 10.3938 14.4563 10.175 14.675C9.95625 14.8938 9.83333 15.1906 9.83333 15.5V17.8333C9.83333 18.1428 9.95625 18.4395 10.175 18.6583C10.3938 18.8771 10.6906 19 11 19C11.3094 19 11.6062 18.8771 11.825 18.6583C12.0437 18.4395 12.1667 18.1428 12.1667 17.8333V15.5ZM7.5 16.6667C7.19058 16.6667 6.89383 16.7896 6.67504 17.0084C6.45625 17.2272 6.33333 17.5239 6.33333 17.8333C6.33333 18.1428 6.45625 18.4395 6.67504 18.6583C6.89383 18.8771 7.19058 19 7.5 19H7.51167C7.82109 19 8.11783 18.8771 8.33662 18.6583C8.55542 18.4395 8.67833 18.1428 8.67833 17.8333C8.67833 17.5239 8.55542 17.2272 8.33662 17.0084C8.11783 16.7896 7.82109 16.6667 7.51167 16.6667H7.5Z" fill="#A8A8A8"/>
</svg>
