<svg width="28" height="28" viewBox="0 0 28 28" fill="none" xmlns="http://www.w3.org/2000/svg">
<path d="M19.25 4.37524C19.2498 3.34874 19.6107 2.35489 20.2693 1.56756C20.9279 0.780223 21.8424 0.249548 22.8528 0.0683767C23.8632 -0.112794 24.9051 0.0670751 25.7963 0.576516C26.6874 1.08596 27.3711 1.89253 27.7276 2.85511C28.0841 3.8177 28.0908 4.875 27.7466 5.84204C27.4023 6.80908 26.7289 7.62427 25.8443 8.14499C24.9597 8.66571 23.9202 8.8588 22.9076 8.69048C21.895 8.52216 20.9738 8.00314 20.3052 7.22424L8.54873 12.6842C8.819 13.5408 8.819 14.4597 8.54873 15.3162L20.3052 20.7762C21.0119 19.9543 21.9986 19.424 23.0741 19.2881C24.1495 19.1522 25.2371 19.4204 26.126 20.0407C27.015 20.661 27.642 21.5892 27.8856 22.6455C28.1292 23.7017 27.972 24.8108 27.4445 25.7577C26.917 26.7047 26.0567 27.4221 25.0304 27.7709C24.004 28.1197 22.8848 28.0751 21.8895 27.6457C20.8942 27.2163 20.0937 26.4327 19.6432 25.4468C19.1927 24.4608 19.1243 23.3428 19.4512 22.3092L7.69473 16.8492C7.11274 17.5275 6.33699 18.0112 5.47184 18.2354C4.60669 18.4595 3.69364 18.4134 2.85552 18.1031C2.0174 17.7928 1.29441 17.2332 0.783814 16.4997C0.273219 15.7662 -0.000488281 14.894 -0.000488281 14.0002C-0.000488281 13.1065 0.273219 12.2342 0.783814 11.5007C1.29441 10.7672 2.0174 10.2077 2.85552 9.8974C3.69364 9.5871 4.60669 9.54093 5.47184 9.76509C6.33699 9.98925 7.11274 10.473 7.69473 11.1512L19.4512 5.69124C19.3174 5.26541 19.2495 4.8216 19.25 4.37524Z" fill="#A8A8A8"/>
</svg>
