<svg width="24" height="24" viewBox="0 0 24 24" fill="none" xmlns="http://www.w3.org/2000/svg">
<mask id="path-1-outside-1_159:22" maskUnits="userSpaceOnUse" x="0.9375" y="0.9375" width="23" height="23" fill="black">
<rect fill="white" x="0.9375" y="0.9375" width="23" height="23"/>
<path d="M21.9344 12.3093L17.3418 16.9031C17.3013 16.9444 17.2531 16.9774 17.1998 17C17.1465 17.0226 17.0893 17.0344 17.0314 17.0347C16.9736 17.035 16.9162 17.0239 16.8627 17.0019C16.8092 16.9799 16.7605 16.9475 16.7196 16.9066C16.6787 16.8657 16.6463 16.8171 16.6243 16.7635C16.6023 16.71 16.5911 16.6527 16.5914 16.5948C16.5918 16.5369 16.6036 16.4797 16.6261 16.4264C16.6487 16.3732 16.6817 16.3249 16.723 16.2844L20.569 12.4375H9.375C9.25897 12.4375 9.14769 12.3914 9.06564 12.3094C8.98359 12.2273 8.9375 12.116 8.9375 12C8.9375 11.884 8.98359 11.7727 9.06564 11.6906C9.14769 11.6086 9.25897 11.5625 9.375 11.5625H20.569L16.723 7.71556C16.6824 7.67493 16.6502 7.62669 16.6282 7.57361C16.6062 7.52052 16.5949 7.46363 16.5949 7.40617C16.595 7.34872 16.6063 7.29183 16.6283 7.23875C16.6503 7.18567 16.6825 7.13745 16.7231 7.09683C16.7638 7.05621 16.812 7.02399 16.8651 7.00201C16.9182 6.98003 16.9751 6.96873 17.0325 6.96874C17.09 6.96875 17.1469 6.98008 17.2 7.00207C17.253 7.02407 17.3013 7.0563 17.3419 7.09694L21.9344 11.6907C22.0164 11.7727 22.0625 11.884 22.0625 12C22.0625 12.116 22.0164 12.2273 21.9344 12.3093ZM9.375 21.1875H3.25C3.134 21.1874 3.02279 21.1413 2.94077 21.0592C2.85875 20.9772 2.81262 20.866 2.8125 20.75V3.25C2.81262 3.134 2.85875 3.02279 2.94077 2.94077C3.02279 2.85875 3.134 2.81262 3.25 2.8125H9.375C9.49103 2.8125 9.60231 2.76641 9.68436 2.68436C9.76641 2.60231 9.8125 2.49103 9.8125 2.375C9.8125 2.25897 9.76641 2.14769 9.68436 2.06564C9.60231 1.98359 9.49103 1.9375 9.375 1.9375H3.25C2.90202 1.93788 2.5684 2.07628 2.32234 2.32234C2.07628 2.5684 1.93788 2.90202 1.9375 3.25V20.75C1.93788 21.098 2.07628 21.4316 2.32234 21.6777C2.5684 21.9237 2.90202 22.0621 3.25 22.0625H9.375C9.49103 22.0625 9.60231 22.0164 9.68436 21.9344C9.76641 21.8523 9.8125 21.741 9.8125 21.625C9.8125 21.509 9.76641 21.3977 9.68436 21.3156C9.60231 21.2336 9.49103 21.1875 9.375 21.1875Z"/>
</mask>
<path d="M21.9344 12.3093L17.3418 16.9031C17.3013 16.9444 17.2531 16.9774 17.1998 17C17.1465 17.0226 17.0893 17.0344 17.0314 17.0347C16.9736 17.035 16.9162 17.0239 16.8627 17.0019C16.8092 16.9799 16.7605 16.9475 16.7196 16.9066C16.6787 16.8657 16.6463 16.8171 16.6243 16.7635C16.6023 16.71 16.5911 16.6527 16.5914 16.5948C16.5918 16.5369 16.6036 16.4797 16.6261 16.4264C16.6487 16.3732 16.6817 16.3249 16.723 16.2844L20.569 12.4375H9.375C9.25897 12.4375 9.14769 12.3914 9.06564 12.3094C8.98359 12.2273 8.9375 12.116 8.9375 12C8.9375 11.884 8.98359 11.7727 9.06564 11.6906C9.14769 11.6086 9.25897 11.5625 9.375 11.5625H20.569L16.723 7.71556C16.6824 7.67493 16.6502 7.62669 16.6282 7.57361C16.6062 7.52052 16.5949 7.46363 16.5949 7.40617C16.595 7.34872 16.6063 7.29183 16.6283 7.23875C16.6503 7.18567 16.6825 7.13745 16.7231 7.09683C16.7638 7.05621 16.812 7.02399 16.8651 7.00201C16.9182 6.98003 16.9751 6.96873 17.0325 6.96874C17.09 6.96875 17.1469 6.98008 17.2 7.00207C17.253 7.02407 17.3013 7.0563 17.3419 7.09694L21.9344 11.6907C22.0164 11.7727 22.0625 11.884 22.0625 12C22.0625 12.116 22.0164 12.2273 21.9344 12.3093ZM9.375 21.1875H3.25C3.134 21.1874 3.02279 21.1413 2.94077 21.0592C2.85875 20.9772 2.81262 20.866 2.8125 20.75V3.25C2.81262 3.134 2.85875 3.02279 2.94077 2.94077C3.02279 2.85875 3.134 2.81262 3.25 2.8125H9.375C9.49103 2.8125 9.60231 2.76641 9.68436 2.68436C9.76641 2.60231 9.8125 2.49103 9.8125 2.375C9.8125 2.25897 9.76641 2.14769 9.68436 2.06564C9.60231 1.98359 9.49103 1.9375 9.375 1.9375H3.25C2.90202 1.93788 2.5684 2.07628 2.32234 2.32234C2.07628 2.5684 1.93788 2.90202 1.9375 3.25V20.75C1.93788 21.098 2.07628 21.4316 2.32234 21.6777C2.5684 21.9237 2.90202 22.0621 3.25 22.0625H9.375C9.49103 22.0625 9.60231 22.0164 9.68436 21.9344C9.76641 21.8523 9.8125 21.741 9.8125 21.625C9.8125 21.509 9.76641 21.3977 9.68436 21.3156C9.60231 21.2336 9.49103 21.1875 9.375 21.1875Z" fill="#A8A8A8"/>
<path d="M17.3418 16.9031L16.6345 16.196L16.6267 16.204L17.3418 16.9031ZM16.723 16.2844L17.4223 16.9994L17.4302 16.9915L16.723 16.2844ZM20.569 12.4375L21.2762 13.1445L22.9828 11.4375H20.569V12.4375ZM20.569 11.5625V12.5625H22.9828L21.2762 10.8555L20.569 11.5625ZM16.723 7.71556L16.0158 8.42254L16.0158 8.42258L16.723 7.71556ZM17.3419 7.09694L16.6346 7.80392L16.6347 7.80395L17.3419 7.09694ZM21.9344 11.6907L22.6416 10.9837L22.6416 10.9837L21.9344 11.6907ZM3.25 21.1875L3.249 22.1875H3.25V21.1875ZM2.8125 20.75H1.8125L1.8125 20.751L2.8125 20.75ZM2.8125 3.25L1.8125 3.249V3.25H2.8125ZM3.25 2.8125V1.8125L3.249 1.8125L3.25 2.8125ZM3.25 1.9375V0.937499L3.24892 0.937501L3.25 1.9375ZM1.9375 3.25L0.9375 3.24892V3.25H1.9375ZM1.9375 20.75H0.937499L0.937501 20.7511L1.9375 20.75ZM3.25 22.0625L3.24892 23.0625H3.25V22.0625ZM21.2272 11.6023L16.6346 16.196L18.049 17.6101L22.6416 13.0163L21.2272 11.6023ZM16.6267 16.204C16.6787 16.1508 16.7408 16.1084 16.8093 16.0794L17.5903 17.9206C17.7653 17.8463 17.9239 17.7381 18.0568 17.6021L16.6267 16.204ZM16.8093 16.0794C16.8778 16.0503 16.9513 16.0351 17.0257 16.0347L17.0371 18.0347C17.2272 18.0336 17.4153 17.9948 17.5903 17.9206L16.8093 16.0794ZM17.0257 16.0347C17.1001 16.0343 17.1739 16.0486 17.2427 16.0769L16.4827 17.9269C16.6585 17.9991 16.847 18.0358 17.0371 18.0347L17.0257 16.0347ZM17.2427 16.0769C17.3115 16.1052 17.374 16.1468 17.4267 16.1994L16.0126 17.6138C16.147 17.7482 16.3068 17.8546 16.4827 17.9269L17.2427 16.0769ZM17.4267 16.1994C17.4793 16.252 17.5209 16.3146 17.5492 16.3834L15.6994 17.1437C15.7717 17.3196 15.8781 17.4793 16.0126 17.6138L17.4267 16.1994ZM17.5492 16.3834C17.5775 16.4522 17.5918 16.5259 17.5914 16.6003L15.5915 16.5893C15.5904 16.7794 15.6271 16.9679 15.6994 17.1437L17.5492 16.3834ZM17.5914 16.6003C17.591 16.6747 17.5759 16.7483 17.5468 16.8168L15.7055 16.0361C15.6313 16.2111 15.5925 16.3992 15.5915 16.5893L17.5914 16.6003ZM17.5468 16.8168C17.5178 16.8853 17.4754 16.9473 17.4222 16.9994L16.0238 15.5695C15.8879 15.7025 15.7797 15.8611 15.7055 16.0361L17.5468 16.8168ZM17.4302 16.9915L21.2762 13.1445L19.8618 11.7305L16.0158 15.5774L17.4302 16.9915ZM20.569 11.4375H9.375V13.4375H20.569V11.4375ZM9.375 11.4375C9.52418 11.4375 9.66726 11.4968 9.77275 11.6023L8.35853 13.0165C8.62812 13.2861 8.99375 13.4375 9.375 13.4375V11.4375ZM9.77275 11.6023C9.87824 11.7077 9.9375 11.8508 9.9375 12H7.9375C7.9375 12.3812 8.08895 12.7469 8.35853 13.0165L9.77275 11.6023ZM9.9375 12C9.9375 12.1492 9.87824 12.2923 9.77275 12.3977L8.35853 10.9835C8.08895 11.2531 7.9375 11.6188 7.9375 12H9.9375ZM9.77275 12.3977C9.66726 12.5032 9.52418 12.5625 9.375 12.5625V10.5625C8.99375 10.5625 8.62812 10.7139 8.35853 10.9835L9.77275 12.3977ZM9.375 12.5625H20.569V10.5625H9.375V12.5625ZM21.2762 10.8555L17.4302 7.00855L16.0158 8.42258L19.8618 12.2695L21.2762 10.8555ZM17.4303 7.00858C17.4825 7.06081 17.5239 7.12283 17.5522 7.19109L15.7043 7.95613C15.7765 8.13056 15.8823 8.28905 16.0158 8.42254L17.4303 7.00858ZM17.5522 7.19109C17.5804 7.25934 17.595 7.33249 17.5949 7.40635L15.5949 7.406C15.5949 7.59477 15.6321 7.7817 15.7043 7.95613L17.5522 7.19109ZM17.5949 7.40635C17.5949 7.48022 17.5804 7.55336 17.5521 7.6216L15.7045 6.8559C15.6322 7.03029 15.595 7.21721 15.5949 7.406L17.5949 7.40635ZM17.5521 7.6216C17.5238 7.68983 17.4824 7.75183 17.4301 7.80406L16.0162 6.3896C15.8826 6.52306 15.7767 6.68151 15.7045 6.8559L17.5521 7.6216ZM17.4301 7.80406C17.3779 7.85628 17.3159 7.89771 17.2476 7.92596L16.4826 6.07807C16.3082 6.15028 16.1497 6.25613 16.0162 6.3896L17.4301 7.80406ZM17.2476 7.92596C17.1794 7.95421 17.1062 7.96875 17.0324 7.96874L17.0327 5.96874C16.8439 5.96871 16.657 6.00586 16.4826 6.07807L17.2476 7.92596ZM17.0324 7.96874C16.9585 7.96873 16.8853 7.95416 16.8171 7.92588L17.5828 6.07826C17.4084 6.00599 17.2215 5.96877 17.0327 5.96874L17.0324 7.96874ZM16.8171 7.92588C16.7489 7.89761 16.6869 7.85616 16.6346 7.80392L18.0491 6.38996C17.9156 6.25644 17.7572 6.15053 17.5828 6.07826L16.8171 7.92588ZM16.6347 7.80395L21.2272 12.3977L22.6416 10.9837L18.0491 6.38992L16.6347 7.80395ZM21.2272 12.3977C21.1218 12.2922 21.0625 12.1492 21.0625 12H23.0625C23.0625 11.6188 22.9111 11.2533 22.6416 10.9837L21.2272 12.3977ZM21.0625 12C21.0625 11.8508 21.1218 11.7078 21.2272 11.6023L22.6416 13.0163C22.9111 12.7467 23.0625 12.3812 23.0625 12H21.0625ZM9.375 20.1875H3.25V22.1875H9.375V20.1875ZM3.251 20.1875C3.39987 20.1876 3.54261 20.2469 3.64788 20.3521L2.23366 21.7663C2.50297 22.0357 2.86813 22.1871 3.249 22.1875L3.251 20.1875ZM3.64788 20.3521C3.75315 20.4574 3.81235 20.6001 3.8125 20.749L1.8125 20.751C1.81288 21.1319 1.96435 21.497 2.23366 21.7663L3.64788 20.3521ZM3.8125 20.75V3.25H1.8125V20.75H3.8125ZM3.8125 3.251C3.81235 3.39987 3.75315 3.5426 3.64788 3.64788L2.23366 2.23366C1.96435 2.50298 1.81288 2.86814 1.8125 3.249L3.8125 3.251ZM3.64788 3.64788C3.5426 3.75315 3.39987 3.81235 3.251 3.8125L3.249 1.8125C2.86814 1.81288 2.50298 1.96435 2.23366 2.23366L3.64788 3.64788ZM3.25 3.8125H9.375V1.8125H3.25V3.8125ZM9.375 3.8125C9.75625 3.8125 10.1219 3.66105 10.3915 3.39147L8.97725 1.97725C9.08274 1.87176 9.22582 1.8125 9.375 1.8125V3.8125ZM10.3915 3.39147C10.6611 3.12188 10.8125 2.75625 10.8125 2.375H8.8125C8.8125 2.22582 8.87176 2.08274 8.97725 1.97725L10.3915 3.39147ZM10.8125 2.375C10.8125 1.99375 10.6611 1.62812 10.3915 1.35853L8.97725 2.77275C8.87176 2.66726 8.8125 2.52418 8.8125 2.375H10.8125ZM10.3915 1.35853C10.1219 1.08895 9.75625 0.9375 9.375 0.9375V2.9375C9.22582 2.9375 9.08274 2.87824 8.97725 2.77275L10.3915 1.35853ZM9.375 0.9375H3.25V2.9375H9.375V0.9375ZM3.24892 0.937501C2.6361 0.938163 2.04856 1.1819 1.61523 1.61523L3.02944 3.02944C3.08823 2.97066 3.16794 2.93759 3.25108 2.9375L3.24892 0.937501ZM1.61523 1.61523C1.1819 2.04856 0.938163 2.6361 0.937501 3.24892L2.9375 3.25108C2.93759 3.16794 2.97066 3.08823 3.02944 3.02944L1.61523 1.61523ZM0.9375 3.25V20.75H2.9375V3.25H0.9375ZM0.937501 20.7511C0.938163 21.3639 1.1819 21.9514 1.61523 22.3848L3.02944 20.9706C2.97066 20.9118 2.93759 20.8321 2.9375 20.7489L0.937501 20.7511ZM1.61523 22.3848C2.04856 22.8181 2.63609 23.0618 3.24892 23.0625L3.25108 21.0625C3.16794 21.0624 3.08823 21.0293 3.02944 20.9706L1.61523 22.3848ZM3.25 23.0625H9.375V21.0625H3.25V23.0625ZM9.375 23.0625C9.75625 23.0625 10.1219 22.9111 10.3915 22.6415L8.97725 21.2273C9.08274 21.1218 9.22582 21.0625 9.375 21.0625V23.0625ZM10.3915 22.6415C10.6611 22.3719 10.8125 22.0062 10.8125 21.625H8.8125C8.8125 21.4758 8.87176 21.3327 8.97725 21.2273L10.3915 22.6415ZM10.8125 21.625C10.8125 21.2438 10.6611 20.8781 10.3915 20.6085L8.97725 22.0227C8.87176 21.9173 8.8125 21.7742 8.8125 21.625H10.8125ZM10.3915 20.6085C10.1219 20.3389 9.75625 20.1875 9.375 20.1875V22.1875C9.22582 22.1875 9.08274 22.1282 8.97725 22.0227L10.3915 20.6085Z" fill="#A8A8A8" mask="url(#path-1-outside-1_159:22)"/>
</svg>
