<svg width="243" height="179" viewBox="0 0 243 179" fill="none" xmlns="http://www.w3.org/2000/svg">
<g clip-path="url(#clip0_962_292)">
<rect x="48" width="194" height="179" rx="80" fill="#D9F2FA"/>
<g clip-path="url(#clip1_962_292)">
<path d="M202.32 173.354V203.5C202.32 203.5 132.054 137.547 123.088 117.518C114.122 97.4896 130.999 47.9452 130.999 47.9452L168.445 68.5009L202.32 173.354Z" fill="#CFE3D5"/>
<path d="M85.9708 34.2415L74.8954 35.2956C74.8954 35.2956 69.0939 47.9452 87.0256 48.9994L85.9708 34.2415Z" fill="#CFE3D5"/>
<path d="M85.9708 53.7429L74.8954 54.7971C74.8954 54.7971 69.0939 67.4467 87.0256 68.5008L85.9708 53.7429Z" fill="#CFE3D5"/>
<path d="M85.9708 74.8257L74.8954 75.8798C74.8954 75.8798 69.0939 88.5295 87.0256 89.5836L85.9708 74.8257Z" fill="#CFE3D5"/>
<path d="M89.1349 95.9084L78.0594 96.9626C78.0594 96.9626 72.258 109.612 90.1897 110.666L89.1349 95.9084Z" fill="#CFE3D5"/>
<path d="M247 178L199.649 129.846C195.346 125.47 192.803 119.665 192.504 113.536L190.981 82.3403C190.901 80.6942 190.415 79.0934 189.567 77.6804L168.708 42.938L162.379 27.126C162.379 27.126 147.612 28.7072 159.742 58.7501L164.753 74.8256C160.236 84.5471 157.896 95.1363 157.896 105.854V142.692C157.896 151.365 197.685 195.783 202.5 203H203.5L205.5 202.5L209 201L212 200L218.5 197L222.5 195L224.5 194L229 191.5L236 187L241.5 182.5L244 180.5L247 178Z" fill="#CFE3D5"/>
<path opacity="0.2" d="M164.116 46.0645L168.519 43.9016L168.369 43.5963L164.301 45.5948L158.159 29.502L157.841 29.6234L164.116 46.0645Z" fill="#FF0000"/>
<path opacity="0.2" d="M74.9545 35.1354L74.8369 35.4546L81.3604 37.8561L81.478 37.5369L74.9545 35.1354Z" fill="black"/>
<path opacity="0.2" d="M74.9545 54.8592L74.8369 55.1783L81.3604 57.5798L81.478 57.2607L74.9545 54.8592Z" fill="black"/>
<path opacity="0.2" d="M74.9545 75.9432L74.8369 76.2623L81.3604 78.6638L81.478 78.3447L74.9545 75.9432Z" fill="black"/>
<path opacity="0.2" d="M78.3718 97.0336L78.2246 97.3401L81.4006 98.8635L81.5478 98.5569L78.3718 97.0336Z" fill="black"/>
</g>
</g>
<path d="M80.5791 39.3232H81.4195V16.316C81.4195 14.5673 81.7641 12.8358 82.4337 11.2202C83.1033 9.60462 84.0848 8.13667 85.3221 6.90017C86.5594 5.66366 88.0282 4.68282 89.6448 4.01362C91.2614 3.34443 92.9941 3 94.7439 3H143.519C145.269 3 147.001 3.34442 148.618 4.01361C150.234 4.6828 151.703 5.66364 152.941 6.90014C154.178 8.13664 155.159 9.60458 155.829 11.2201C156.499 12.8357 156.843 14.5673 156.843 16.3159V142.536C156.843 144.284 156.499 146.016 155.829 147.631C155.159 149.247 154.178 150.715 152.941 151.951C151.703 153.188 150.234 154.169 148.618 154.838C147.001 155.507 145.269 155.852 143.519 155.852H94.7439C91.2101 155.852 87.821 154.449 85.3221 151.951C82.8233 149.454 81.4195 146.067 81.4195 142.536V55.7002H80.5791V39.3232Z" fill="#3F3D56"/>
<path d="M94.2064 6.46437H100.573C100.28 7.18174 100.169 7.96005 100.248 8.73076C100.327 9.50146 100.594 10.2409 101.027 10.8839C101.459 11.527 102.043 12.0538 102.727 12.4182C103.412 12.7825 104.175 12.9731 104.95 12.9732H132.893C133.668 12.9731 134.431 12.7825 135.115 12.4182C135.8 12.0539 136.384 11.527 136.816 10.8839C137.248 10.2409 137.516 9.50147 137.595 8.73076C137.674 7.96005 137.562 7.18173 137.27 6.46436H143.216C145.855 6.46435 148.386 7.51204 150.252 9.37694C152.118 11.2418 153.167 13.7712 153.167 16.4086V142.443C153.167 143.749 152.909 145.042 152.409 146.249C151.909 147.455 151.176 148.551 150.252 149.475C149.328 150.398 148.231 151.131 147.024 151.63C145.817 152.13 144.523 152.387 143.216 152.387H94.2064C92.8997 152.387 91.6057 152.13 90.3985 151.63C89.1912 151.131 88.0943 150.398 87.1703 149.475C86.2463 148.551 85.5134 147.455 85.0133 146.249C84.5132 145.042 84.2559 143.749 84.2559 142.443V142.443V16.4086C84.2559 15.1027 84.5132 13.8096 85.0133 12.6031C85.5134 11.3966 86.2463 10.3004 87.1703 9.37695C88.0943 8.45355 89.1912 7.72106 90.3985 7.22132C91.6057 6.72158 92.8997 6.46436 94.2064 6.46437Z" fill="white"/>
<path d="M129.211 41.7729H108.211V46.8374H129.211V41.7729Z" fill="#6C63FF"/>
<path d="M130.211 63.5344H107.211V68.5988H130.211V63.5344Z" fill="#E5E5E5"/>
<path d="M144.378 74.4135H93.0439V79.4779H144.378V74.4135Z" fill="#E5E5E5"/>
<path d="M144.378 85.2924H93.0439V90.3568H144.378V85.2924Z" fill="#E5E5E5"/>
<path d="M118.737 134.063C126.861 134.063 133.447 127.481 133.447 119.362C133.447 111.243 126.861 104.661 118.737 104.661C110.612 104.661 104.026 111.243 104.026 119.362C104.026 127.481 110.612 134.063 118.737 134.063Z" fill="#6C63FF"/>
<path d="M117.335 125.567L112.933 119.91L115.493 117.92L117.577 120.598L124.62 113.169L126.975 115.399L117.335 125.567Z" fill="white"/>
<rect x="41.0186" y="88.6464" width="4.04561" height="52.7735" rx="2.0228" transform="rotate(50.641 41.0186 88.6464)" fill="#ACD8E6"/>
<rect x="41.2266" y="108.645" width="4.04561" height="24.0373" rx="2.0228" transform="rotate(50.641 41.2266 108.645)" fill="#ACD8E6"/>
<rect x="232.49" y="4.82007" width="4.04561" height="52.7735" rx="2.0228" transform="rotate(50.641 232.49 4.82007)" fill="#ACD8E6"/>
<rect x="239.624" y="17.7468" width="4.04561" height="29.511" rx="2.0228" transform="rotate(50.641 239.624 17.7468)" fill="#ACD8E6"/>
<defs>
<clipPath id="clip0_962_292">
<rect x="48" width="194" height="179" rx="80" fill="white"/>
</clipPath>
<clipPath id="clip1_962_292">
<rect width="172" height="203" fill="white" transform="translate(70 3)"/>
</clipPath>
</defs>
</svg>
